<svg xmlns="http://www.w3.org/2000/svg" xmlns:xlink="http://www.w3.org/1999/xlink" width="1902.66675" height="1870.3734" viewBox="0 0 503.41393 494.86963">
    <defs>
        <linearGradient id="d">
            <stop offset="0" stop-color="#6ecd3f"/>
            <stop offset="1" stop-color="#c9fd02"/>
        </linearGradient>
        <linearGradient id="c">
            <stop offset="0" stop-color="#2c94ea"/>
            <stop offset="1" stop-color="#00efc8"/>
        </linearGradient>
        <linearGradient id="b">
            <stop offset="0" stop-color="#019289"/>
            <stop offset="1" stop-color="#8dde2f" stop-opacity=".94118"/>
        </linearGradient>
        <linearGradient id="a">
            <stop offset="0" stop-color="#a3cd01"/>
            <stop offset="1" stop-color="#5ad557"/>
        </linearGradient>
        <linearGradient id="e" x1="363.54922" x2="-119.50433" y1="245.08498" y2="252.6445" gradientTransform="translate(137.38421 44.1232) scale(3.77953)" gradientUnits="userSpaceOnUse" xlink:href="#a"/>
        <linearGradient id="f" x1="264.20535" x2="115.28274" y1="167.17888" y2="166.04495" gradientUnits="userSpaceOnUse" xlink:href="#b"/>
        <linearGradient id="g" x1="201.08333" x2="76.02651" y1="280.19376" y2="276.358" gradientUnits="userSpaceOnUse" xlink:href="#c"/>
        <linearGradient id="h" x1="152.70238" x2="52.53869" y1="370.53009" y2="368.6402" gradientUnits="userSpaceOnUse" xlink:href="#d"/>
    </defs>
    <g transform="translate(130.22352 2.40121)">
        <ellipse cx="121.48342" cy="245.0336" fill="none" rx="241.70683" ry="237.43481"/>
        <path fill="url(#e)" d="M596.5332 72.84375a913.53764 897.39142 0 0 0-913.53711 897.39063A913.53764 897.39142 0 0 0 596.5332 1867.625a913.53764 897.39142 0 0 0 913.5391-897.39062A913.53764 897.39142 0 0 0 596.5332 72.84375zm0 54.54687a858.00795 842.84318 0 0 1 858.0098 842.84376 858.00795 842.84318 0 0 1-858.0098 842.84372 858.00795 842.84318 0 0 1-858.00781-842.84372A858.00795 842.84318 0 0 1 596.5332 127.39062z" transform="translate(-36.34957 -11.67426) scale(.26458)"/>
        <path fill="none" d="M-105.58697 244.41536a221.93159 226.44162 90 0 0 226.07256 221.9313 221.93159 226.44162 90 0 0 226.80948-221.20788A221.93159 226.44162 90 0 0 121.96183 22.48642a221.93159 226.44162 90 0 0-227.54399 220.48211"/>
    </g>
    <g stroke="#000">
        <path fill="url(#f)" stroke-opacity=".12755" stroke-width=".26458" d="M140.60714 48.87234c-.71441 17.22525 1.32539 32.86715 6.14608 46.44307 14.37531 40.48337 59.2438 76.39919 59.2438 76.39919 57.83035 50.64882 65.55591 57.5924 54.61756 94.02158-9.2324 30.74769-34.96279 54.90104-34.96279 54.90104s3.17028-28.91799-23.60059-56.9732c-22.60629-23.69084-45.02415-43.29276-67.34736-72.56307-45.3081-59.40824 5.9033-142.22861 5.9033-142.22861z" transform="translate(93.87395 -9.27305)"/>
        <path fill="url(#g)" stroke-opacity=".11224" stroke-width=".22982" d="M96.3135 165.34011c-.62055 14.96225-.1511 24.81388 4.03626 36.60623 12.48674 35.16479 46.41582 63.55576 46.41582 63.55576 50.23277 43.99473 60.5515 50.82788 51.0502 82.47111-8.01947 26.70815-29.56767 48.0892-29.56767 48.0892s3.98241-19.78981-19.43093-48.01824c-17.54075-21.1481-37.90631-36.40237-57.29676-61.82724-39.35566-51.60335 4.79308-120.87682 4.79308-120.87682z" transform="translate(93.87395 -9.27305)"/>
        <path fill="url(#h)" stroke-opacity=".02041" stroke-width=".1712" d="M69.60092 280.51575c-.46226 11.14555.12108 19.29007 2.98461 28.16096 9.83604 30.47095 36.06982 49.76736 36.06982 49.76736 37.41894 32.77216 48.75002 40.46615 42.15549 64.17723-7.57742 27.2451-23.95891 41.26983-23.95891 41.26983s2.71949-20.3149-19.54699-43.27878c-14.74955-15.21151-29.307-28.0488-43.44326-47.21898-28.24738-38.30627 5.73924-92.87762 5.73924-92.87762z" transform="translate(93.87395 -9.27305)"/>
    </g>
</svg>